<svg width="24" height="24" viewBox="0 0 24 24" fill="none" xmlns="http://www.w3.org/2000/svg">
<path d="M1.33368 4.00001C1.33368 3.29277 1.61463 2.61449 2.11473 2.11439C2.61482 1.61429 3.2931 1.33334 4.00035 1.33334H6.66701C7.37426 1.33334 8.05253 1.61429 8.55263 2.11439C9.05273 2.61449 9.33368 3.29277 9.33368 4.00001V6.66668C9.33368 7.37392 9.05273 8.0522 8.55263 8.55229C8.05253 9.05239 7.37426 9.33334 6.66701 9.33334H4.00035C3.2931 9.33334 2.61482 9.05239 2.11473 8.55229C1.61463 8.0522 1.33368 7.37392 1.33368 6.66668V4.00001ZM14.667 4.00001C14.667 3.29277 14.948 2.61449 15.4481 2.11439C15.9482 1.61429 16.6264 1.33334 17.3337 1.33334H20.0003C20.7076 1.33334 21.3859 1.61429 21.886 2.11439C22.3861 2.61449 22.667 3.29277 22.667 4.00001V6.66668C22.667 7.37392 22.3861 8.0522 21.886 8.55229C21.3859 9.05239 20.7076 9.33334 20.0003 9.33334H17.3337C16.6264 9.33334 15.9482 9.05239 15.4481 8.55229C14.948 8.0522 14.667 7.37392 14.667 6.66668V4.00001ZM1.33368 17.3333C1.33368 16.6261 1.61463 15.9478 2.11473 15.4477C2.61482 14.9476 3.2931 14.6667 4.00035 14.6667H6.66701C7.37426 14.6667 8.05253 14.9476 8.55263 15.4477C9.05273 15.9478 9.33368 16.6261 9.33368 17.3333V20C9.33368 20.7073 9.05273 21.3855 8.55263 21.8856C8.05253 22.3857 7.37426 22.6667 6.66701 22.6667H4.00035C3.2931 22.6667 2.61482 22.3857 2.11473 21.8856C1.61463 21.3855 1.33368 20.7073 1.33368 20V17.3333ZM14.667 17.3333C14.667 16.6261 14.948 15.9478 15.4481 15.4477C15.9482 14.9476 16.6264 14.6667 17.3337 14.6667H20.0003C20.7076 14.6667 21.3859 14.9476 21.886 15.4477C22.3861 15.9478 22.667 16.6261 22.667 17.3333V20C22.667 20.7073 22.3861 21.3855 21.886 21.8856C21.3859 22.3857 20.7076 22.6667 20.0003 22.6667H17.3337C16.6264 22.6667 15.9482 22.3857 15.4481 21.8856C14.948 21.3855 14.667 20.7073 14.667 20V17.3333Z" stroke="#5B25B4" stroke-width="2" stroke-linecap="round" stroke-linejoin="round"/>
</svg>
