<svg width="32" height="32" viewBox="0 0 32 32" fill="none" xmlns="http://www.w3.org/2000/svg">
<path d="M13.767 5.756C14.335 3.41467 17.6657 3.41467 18.2337 5.756C18.3189 6.10773 18.486 6.43437 18.7213 6.70933C18.9566 6.98429 19.2536 7.19981 19.5879 7.33833C19.9223 7.47685 20.2846 7.53447 20.6454 7.50649C21.0062 7.47852 21.3554 7.36574 21.6644 7.17733C23.7217 5.924 26.0777 8.27867 24.8244 10.3373C24.6362 10.6462 24.5236 10.9951 24.4957 11.3557C24.4678 11.7163 24.5254 12.0784 24.6637 12.4125C24.8021 12.7467 25.0174 13.0434 25.292 13.2787C25.5667 13.514 25.8929 13.6812 26.2444 13.7667C28.5857 14.3347 28.5857 17.6653 26.2444 18.2333C25.8926 18.3186 25.566 18.4856 25.291 18.7209C25.0161 18.9563 24.8006 19.2532 24.662 19.5875C24.5235 19.9219 24.4659 20.2842 24.4939 20.645C24.5219 21.0059 24.6346 21.355 24.823 21.664C26.0764 23.7213 23.7217 26.0773 21.663 24.824C21.3542 24.6359 21.0053 24.5233 20.6447 24.4954C20.2841 24.4674 19.922 24.525 19.5879 24.6634C19.2537 24.8017 18.9569 25.017 18.7216 25.2916C18.4863 25.5663 18.3192 25.8926 18.2337 26.244C17.6657 28.5853 14.335 28.5853 13.767 26.244C13.6818 25.8923 13.5147 25.5656 13.2794 25.2907C13.0441 25.0157 12.7472 24.8002 12.4128 24.6617C12.0785 24.5232 11.7161 24.4655 11.3553 24.4935C10.9945 24.5215 10.6454 24.6343 10.3364 24.8227C8.27903 26.076 5.92303 23.7213 7.17637 21.6627C7.3645 21.3538 7.4771 21.0049 7.50501 20.6443C7.53292 20.2837 7.47536 19.9216 7.337 19.5875C7.19863 19.2533 6.98338 18.9566 6.70873 18.7213C6.43408 18.486 6.10778 18.3188 5.75637 18.2333C3.41503 17.6653 3.41503 14.3347 5.75637 13.7667C6.1081 13.6814 6.43474 13.5144 6.7097 13.2791C6.98466 13.0437 7.20017 12.7468 7.33869 12.4125C7.47722 12.0781 7.53483 11.7158 7.50686 11.355C7.47888 10.9941 7.3661 10.645 7.1777 10.336C5.92437 8.27867 8.27903 5.92267 10.3377 7.176C11.6657 7.98667 13.399 7.26933 13.767 5.756Z" stroke="#5B25B4" stroke-width="2" stroke-linecap="round" stroke-linejoin="round"/>
<path d="M20.0004 16C20.0004 17.0609 19.5789 18.0783 18.8288 18.8284C18.0786 19.5786 17.0612 20 16.0004 20C14.9395 20 13.9221 19.5786 13.1719 18.8284C12.4218 18.0783 12.0004 17.0609 12.0004 16C12.0004 14.9391 12.4218 13.9217 13.1719 13.1716C13.9221 12.4214 14.9395 12 16.0004 12C17.0612 12 18.0786 12.4214 18.8288 13.1716C19.5789 13.9217 20.0004 14.9391 20.0004 16V16Z" stroke="#5B25B4" stroke-width="2" stroke-linecap="round" stroke-linejoin="round"/>
</svg>
