<svg width="44" height="44" viewBox="0 0 44 44" fill="none" xmlns="http://www.w3.org/2000/svg">
<circle cx="22" cy="22" r="22" fill="#45198D"/>
<path fill-rule="evenodd" clip-rule="evenodd" d="M13 13C12.2044 13 11.4413 13.3161 10.8787 13.8787C10.3161 14.4413 10 15.2044 10 16V22C10 22.7956 10.3161 23.5587 10.8787 24.1213C11.4413 24.6839 12.2044 25 13 25V16H28C28 15.2044 27.6839 14.4413 27.1213 13.8787C26.5587 13.3161 25.7956 13 25 13H13ZM16 22C16 21.2044 16.3161 20.4413 16.8787 19.8787C17.4413 19.3161 18.2044 19 19 19H31C31.7956 19 32.5587 19.3161 33.1213 19.8787C33.6839 20.4413 34 21.2044 34 22V28C34 28.7956 33.6839 29.5587 33.1213 30.1213C32.5587 30.6839 31.7956 31 31 31H19C18.2044 31 17.4413 30.6839 16.8787 30.1213C16.3161 29.5587 16 28.7956 16 28V22ZM25 28C25.7956 28 26.5587 27.6839 27.1213 27.1213C27.6839 26.5587 28 25.7956 28 25C28 24.2044 27.6839 23.4413 27.1213 22.8787C26.5587 22.3161 25.7956 22 25 22C24.2044 22 23.4413 22.3161 22.8787 22.8787C22.3161 23.4413 22 24.2044 22 25C22 25.7956 22.3161 26.5587 22.8787 27.1213C23.4413 27.6839 24.2044 28 25 28Z" fill="white"/>
</svg>
