<svg width="44" height="44" viewBox="0 0 44 44" fill="none" xmlns="http://www.w3.org/2000/svg">
<circle cx="22" cy="22" r="22" fill="#F4F4F4"/>
<path fill-rule="evenodd" clip-rule="evenodd" d="M25 17.5184C24.6022 17.5184 24.2206 17.3604 23.9393 17.0791C23.658 16.7978 23.5 16.4163 23.5 16.0184C23.5 15.6206 23.658 15.2391 23.9393 14.9578C24.2206 14.6765 24.6022 14.5184 25 14.5184H32.5C32.8978 14.5184 33.2794 14.6765 33.5607 14.9578C33.842 15.2391 34 15.6206 34 16.0184V23.5184C34 23.9163 33.842 24.2978 33.5607 24.5791C33.2794 24.8604 32.8978 25.0184 32.5 25.0184C32.1022 25.0184 31.7206 24.8604 31.4393 24.5791C31.158 24.2978 31 23.9163 31 23.5184V19.6394L24.5605 26.0789C24.2792 26.3601 23.8977 26.5181 23.5 26.5181C23.1023 26.5181 22.7208 26.3601 22.4395 26.0789L19 22.6394L12.5605 29.0789C12.2776 29.3522 11.8987 29.5034 11.5054 29.4999C11.1121 29.4965 10.7359 29.3388 10.4578 29.0607C10.1797 28.7825 10.0219 28.4063 10.0185 28.013C10.0151 27.6197 10.1663 27.2408 10.4395 26.9579L17.9395 19.4579C18.2208 19.1767 18.6023 19.0188 19 19.0188C19.3977 19.0188 19.7792 19.1767 20.0605 19.4579L23.5 22.8974L28.879 17.5184H25Z" fill="#5C26B4"/>
</svg>
