<svg width="26" height="25" viewBox="0 0 26 25" fill="none" xmlns="http://www.w3.org/2000/svg">
<path d="M19.667 18.3333V21C19.667 21.7072 19.386 22.3855 18.8859 22.8856C18.3858 23.3857 17.7075 23.6667 17.0003 23.6667H3.66697C2.95973 23.6667 2.28145 23.3857 1.78135 22.8856C1.28126 22.3855 1.00031 21.7072 1.00031 21V11.6667C1.00031 10.9594 1.28126 10.2811 1.78135 9.78105C2.28145 9.28095 2.95973 9 3.66697 9H6.33364M10.3336 3.66667H9.00031C8.29306 3.66667 7.61478 3.94762 7.11469 4.44771C6.61459 4.94781 6.33364 5.62609 6.33364 6.33333V15.6667C6.33364 16.3739 6.61459 17.0522 7.11469 17.5523C7.61478 18.0524 8.29306 18.3333 9.00031 18.3333H22.3336C23.0409 18.3333 23.7192 18.0524 24.2193 17.5523C24.7194 17.0522 25.0003 16.3739 25.0003 15.6667V6.33333C25.0003 5.62609 24.7194 4.94781 24.2193 4.44771C23.7192 3.94762 23.0409 3.66667 22.3336 3.66667H21.0003M19.667 9L15.667 13M15.667 13L11.667 9M15.667 13V1" stroke="#5B25B4" stroke-width="2" stroke-linecap="round" stroke-linejoin="round"/>
</svg>
