<svg width="44" height="44" viewBox="0 0 44 44" fill="none" xmlns="http://www.w3.org/2000/svg">
<circle cx="22" cy="22" r="22" fill="#F4F4F4"/>
<path fill-rule="evenodd" clip-rule="evenodd" d="M19.0183 26.5C19.4161 26.5 19.7977 26.658 20.079 26.9393C20.3603 27.2206 20.5183 27.6022 20.5183 28C20.5183 28.3978 20.3603 28.7794 20.079 29.0607C19.7977 29.342 19.4161 29.5 19.0183 29.5H11.5183C11.1205 29.5 10.739 29.342 10.4576 29.0607C10.1763 28.7794 10.0183 28.3978 10.0183 28V20.5C10.0183 20.1022 10.1763 19.7206 10.4576 19.4393C10.739 19.158 11.1205 19 11.5183 19C11.9161 19 12.2977 19.158 12.579 19.4393C12.8603 19.7206 13.0183 20.1022 13.0183 20.5V24.379L19.4578 17.9395C19.7391 17.6583 20.1206 17.5003 20.5183 17.5003C20.9161 17.5003 21.2975 17.6583 21.5788 17.9395L25.0183 21.379L31.4578 14.9395C31.7407 14.6663 32.1196 14.5151 32.5129 14.5185C32.9062 14.5219 33.2824 14.6797 33.5605 14.9578C33.8387 15.2359 33.9964 15.6121 33.9998 16.0054C34.0032 16.3987 33.852 16.7776 33.5788 17.0605L26.0788 24.5605C25.7975 24.8417 25.4161 24.9997 25.0183 24.9997C24.6206 24.9997 24.2391 24.8417 23.9578 24.5605L20.5183 21.121L15.1393 26.5H19.0183Z" fill="#5C26B4"/>
</svg>
