<svg width="26" height="24" viewBox="0 0 26 24" fill="none" xmlns="http://www.w3.org/2000/svg">
<path d="M14.3337 17.3333V18.6667C14.3337 19.7275 13.9123 20.745 13.1621 21.4951C12.412 22.2452 11.3946 22.6667 10.3337 22.6667H5.00037C3.9395 22.6667 2.92208 22.2452 2.17194 21.4951C1.42179 20.745 1.00037 19.7275 1.00037 18.6667V5.33334C1.00037 4.27248 1.42179 3.25506 2.17194 2.50492C2.92208 1.75477 3.9395 1.33334 5.00037 1.33334H10.3337C11.3946 1.33334 12.412 1.75477 13.1621 2.50492C13.9123 3.25506 14.3337 4.27248 14.3337 5.33334V6.66668M19.667 17.3333L25.0004 12L19.667 17.3333ZM25.0004 12L19.667 6.66668L25.0004 12ZM25.0004 12H6.3337H25.0004Z" stroke="#D36363" stroke-width="2" stroke-linecap="round" stroke-linejoin="round"/>
</svg>
