<svg width="33" height="33" viewBox="0 0 33 33" fill="none" xmlns="http://www.w3.org/2000/svg">
<path d="M3.16706 17.851C1.17262 18.2027 -0.194472 20.1293 0.571133 22.0043C1.64001 24.6219 3.34526 26.9541 5.556 28.7765C8.71719 31.3823 12.7044 32.7747 16.8005 32.7033C20.8967 32.6318 24.8329 31.101 27.9013 28.3864C30.047 26.488 31.6698 24.0977 32.6468 21.4444C33.3465 19.5438 31.9129 17.6661 29.9074 17.3843C27.902 17.1024 26.1013 18.5622 25.1107 20.3287C24.5738 21.2861 23.8767 22.1548 23.0417 22.8936C21.2812 24.4512 19.0227 25.3294 16.6726 25.3704C14.3224 25.4114 12.0347 24.6126 10.221 23.1174C9.36057 22.4082 8.63368 21.5644 8.06362 20.6262C7.012 18.8954 5.16151 17.4993 3.16706 17.851Z" fill="#5B25B4"/>
<path d="M3.16706 0.501745C1.17262 0.853434 -0.194472 2.78003 0.571133 4.65502C1.64001 7.2726 3.34526 9.6048 5.556 11.4273C8.71719 14.033 12.7044 15.4254 16.8005 15.354C20.8967 15.2825 24.8329 13.7518 27.9013 11.0371C30.047 9.13875 31.6698 6.7484 32.6468 4.09514C33.3465 2.19457 31.9129 0.316839 29.9074 0.0350066C27.902 -0.246826 26.1013 1.21292 25.1107 2.97939C24.5738 3.93684 23.8767 4.80551 23.0417 5.54433C21.2812 7.10192 19.0227 7.98011 16.6726 8.02117C14.3224 8.06212 12.0347 7.26331 10.221 5.76812C9.36057 5.0589 8.63368 4.21512 8.06362 3.27694C7.012 1.54614 5.16151 0.150057 3.16706 0.501745Z" fill="#5B25B4"/>
</svg>