<svg id="Layer_1" data-name="Layer 1" xmlns="http://www.w3.org/2000/svg" viewBox="0 0 1160.49 1160.48"><defs><style>.cls-1{fill:#16516b;}</style></defs><path class="cls-1" d="M2007.28,1686.13a1389.58,1389.58,0,0,1-279.59-28.55,349,349,0,0,1-272.09-272.11,1383.17,1383.17,0,0,1,0-559.18,349,349,0,0,1,272.09-272.1,1383.8,1383.8,0,0,1,559.2,0A349.13,349.13,0,0,1,2559,826.29a1383.27,1383.27,0,0,1,0,559.2,349.05,349.05,0,0,1-272.12,272.09A1389.29,1389.29,0,0,1,2007.28,1686.13Zm0-1094.14A1323.38,1323.38,0,0,0,1741,619.16a282.79,282.79,0,0,0-220.47,220.45,1317.8,1317.8,0,0,0,0,532.53A282.78,282.78,0,0,0,1741,1592.61a1317.09,1317.09,0,0,0,532.53,0h0A282.78,282.78,0,0,0,2494,1372.14a1317.71,1317.71,0,0,0,0-532.51,282.83,282.83,0,0,0-220.47-220.47A1323.18,1323.18,0,0,0,2007.3,592Z" transform="translate(-1427.04 -525.65)"/><path class="cls-1" d="M2193.15,1139.06H1821.42a33.17,33.17,0,1,1,0-66.33h371.73a33.17,33.17,0,0,1,0,66.33Z" transform="translate(-1427.04 -525.65)"/><path class="cls-1" d="M2007.28,1324.91a33.17,33.17,0,0,1-33.16-33.17V920a33.17,33.17,0,0,1,66.33,0v371.71A33.17,33.17,0,0,1,2007.28,1324.91Z" transform="translate(-1427.04 -525.65)"/></svg>