<svg width="22" height="26" viewBox="0 0 22 26" fill="none" xmlns="http://www.w3.org/2000/svg">
<path d="M16.3337 6.33336C16.3337 7.74785 15.7718 9.10441 14.7716 10.1046C13.7714 11.1048 12.4149 11.6667 11.0004 11.6667C9.5859 11.6667 8.22934 11.1048 7.22915 10.1046C6.22896 9.10441 5.66705 7.74785 5.66705 6.33336C5.66705 4.91888 6.22896 3.56232 7.22915 2.56213C8.22934 1.56193 9.5859 1.00003 11.0004 1.00003C12.4149 1.00003 13.7714 1.56193 14.7716 2.56213C15.7718 3.56232 16.3337 4.91888 16.3337 6.33336V6.33336ZM11.0004 15.6667C8.52503 15.6667 6.15106 16.65 4.40072 18.4004C2.65038 20.1507 1.66705 22.5247 1.66705 25H20.3337C20.3337 22.5247 19.3504 20.1507 17.6 18.4004C15.8497 16.65 13.4757 15.6667 11.0004 15.6667V15.6667Z" stroke="#5B25B4" stroke-width="2" stroke-linecap="round" stroke-linejoin="round"/>
</svg>
